<svg width="60" height="32" viewBox="0 0 60 32" fill="none" xmlns="http://www.w3.org/2000/svg">
<path d="M22.1403 23.0248L27.9253 12.4671H21.9257V11.9673H28.7504L22.7015 23.0248H22.1403ZM29.2957 23.0248L35.0808 12.4671H29.0811V11.9673H35.9074L29.8585 23.0248H29.2957ZM36.3271 19.8067H37.734C38.0679 21.1042 38.9423 21.753 40.3571 21.753C41.0725 21.753 41.6448 21.5896 42.074 21.2612C42.5033 20.9328 42.7179 20.5051 42.7179 19.9765C42.7179 19.0795 42.1853 18.5028 41.1202 18.2465L39.5702 17.8861C39.1569 17.79 38.7992 17.6747 38.4971 17.5385C38.1951 17.4024 37.8803 17.2021 37.556 16.9378C37.2301 16.6735 36.9996 16.3131 36.8645 15.8566C36.7293 15.4001 36.6928 14.8602 36.7579 14.2355C36.8692 13.4506 37.2698 12.8099 37.9614 12.3133C38.6529 11.8167 39.4589 11.5685 40.381 11.5685C41.303 11.5685 42.082 11.8087 42.7179 12.2893C43.3538 12.7698 43.7433 13.4987 43.8863 14.4758H42.3363C42.241 14.0593 42.0152 13.7277 41.6575 13.4794C41.2998 13.2312 40.8738 13.1078 40.3826 13.1078C39.842 13.1078 39.3778 13.236 38.9884 13.4923C38.5989 13.7486 38.3715 14.0769 38.3095 14.4774C38.1347 15.4225 38.6831 16.0472 39.9549 16.3516L41.4811 16.712C43.357 17.1605 44.2933 18.2497 44.2933 19.9781C44.2933 20.9392 43.9038 21.7273 43.1249 22.344C42.3459 22.9608 41.3761 23.2683 40.2172 23.2683C39.2157 23.2683 38.3302 22.9527 37.5592 22.32C36.785 21.6841 36.3748 20.8479 36.3271 19.8067ZM56.7569 17.3799C56.7569 19.1259 56.1925 20.5436 55.0638 21.6312C53.9351 22.7205 52.56 23.2651 50.94 23.2651C49.3185 23.2651 47.9434 22.7205 46.8162 21.6312C45.6875 20.542 45.1232 19.1259 45.1232 17.3799C45.1232 15.6499 45.6828 14.2499 46.8035 13.1767C47.9243 12.1035 49.3026 11.5668 50.94 11.5668C52.5775 11.5668 53.9558 12.1035 55.0765 13.1767C56.1973 14.2499 56.7569 15.6499 56.7569 17.3799ZM47.9243 20.4795C48.743 21.2804 49.7477 21.6809 50.94 21.6809C52.1323 21.6809 53.1371 21.2804 53.9558 20.4795C54.7745 19.6786 55.183 18.6454 55.183 17.3815C55.183 16.1161 54.7729 15.0957 53.9558 14.3188C53.1371 13.5419 52.1323 13.1543 50.94 13.1543C49.7477 13.1543 48.743 13.5435 47.9243 14.3188C47.1056 15.0957 46.697 16.1161 46.697 17.3815C46.697 18.6454 47.1056 19.6786 47.9243 20.4795ZM60 5.72974V23.0248H58.4261V5.72974H60Z" fill="white"/>
<path opacity="0.3" fill-rule="evenodd" clip-rule="evenodd" d="M4.92188 21.7434L13.9564 27.824L20.3551 0L9.42084 0.10412L4.92188 21.7434Z" fill="white"/>
<path opacity="0.7" fill-rule="evenodd" clip-rule="evenodd" d="M2.46094 23.813L11.4954 29.892L17.8941 2.06958L6.9599 2.1737L2.46094 23.813Z" fill="white"/>
<path fill-rule="evenodd" clip-rule="evenodd" d="M0 25.9194L9.03609 32L15.4332 4.17603L4.49897 4.28015L0 25.9194Z" fill="white"/>
</svg>
